<svg xmlns="http://www.w3.org/2000/svg" width="20" height="20" viewBox="0 0 20 20">
  <metadata><?xpacket begin="﻿" id="W5M0MpCehiHzreSzNTczkc9d"?>
<x:xmpmeta xmlns:x="adobe:ns:meta/" x:xmptk="Adobe XMP Core 5.6-c138 79.159824, 2016/09/14-01:09:01        ">
   <rdf:RDF xmlns:rdf="http://www.w3.org/1999/02/22-rdf-syntax-ns#">
      <rdf:Description rdf:about=""/>
   </rdf:RDF>
</x:xmpmeta>
                                                                                                    
                                                                                                    
                                                                                                    
                                                                                                    
                                                                                                    
                                                                                                    
                                                                                                    
                                                                                                    
                                                                                                    
                                                                                                    
                                                                                                    
                                                                                                    
                                                                                                    
                                                                                                    
                                                                                                    
                                                                                                    
                                                                                                    
                                                                                                    
                                                                                                    
                                                                                                    
                           
<?xpacket end="w"?></metadata>
<defs>
    <style>
      .cls-1 {
        fill: #333;
        fill-rule: evenodd;
      }
    </style>
  </defs>
  <path id="icon_world" class="cls-1" d="M165.5,215a7.5,7.5,0,1,0,7.5,7.5A7.509,7.509,0,0,0,165.5,215Zm0,1.251a6.244,6.244,0,0,1,3.34.976l-0.508.059,0.117,1.25-0.664-.293-0.547.468,0.1,1.29,1.347-.43,1.68,0.547-0.43.782-1.015-.626-1.094.157-1.074.8-0.606,1.875,1.211,1s1.243-.214,1.309-0.214a8.7,8.7,0,0,1,.527,1.132l-1,3.125a6.239,6.239,0,0,1-2.695.606c-0.2,0-.393-0.022-0.586-0.04l-0.684-1.19,0.664-2.5-2.519-1.894h-2.324l-0.606-1.23,1.68-1.329,2.5-1.191-0.371-1.661,1.074-.234,0.508,0.7,1.875-.351-0.332-1.446-1.387-.1C165.158,216.274,165.329,216.247,165.5,216.247Zm-0.7.039-0.977.41-0.469-.078A6.187,6.187,0,0,1,164.8,216.286Zm-5.508,6.7,0.605,0.7v1.289l1.172,1.289h0.723l1.777,2.188A6.24,6.24,0,0,1,159.289,222.985Z" transform="translate(-155.5 -212.5)"/>
</svg>
